# Blender v3.1.2 OBJ File: 'Smg.blend'
# www.blender.org
mtllib Lmg Clip.mtl
o LmgClip_Cube.003
v -0.048305 -0.071696 -0.050760
v -0.048305 -0.030990 -0.050760
v -0.048305 -0.071696 -0.107967
v -0.048305 -0.030990 -0.107967
v 0.000000 -0.100325 -0.110224
v 0.000000 -0.002599 -0.110224
v 0.000000 -0.100325 -0.048503
v 0.000000 -0.002599 -0.048503
v -0.035837 -0.015305 -0.110224
v -0.035877 -0.087428 -0.110224
v -0.035877 -0.087428 -0.048503
v -0.035837 -0.015305 -0.048503
v 0.000000 -0.012383 -0.120525
v -0.035101 -0.024828 -0.120525
v -0.023276 -0.073352 -0.038203
v -0.035101 -0.077891 -0.120525
v -0.023276 -0.029398 -0.038203
v 0.000000 -0.081720 -0.038203
v 0.000000 -0.090510 -0.120525
v 0.000000 -0.021145 -0.038203
v 0.000000 -0.004722 -0.110224
v 0.000000 -0.004722 -0.048503
v 0.000000 -0.098209 -0.110224
v 0.000000 -0.098209 -0.048503
v -0.034680 -0.017428 -0.110224
v -0.034707 -0.085312 -0.048503
v -0.034707 -0.085312 -0.110224
v -0.034680 -0.017428 -0.048503
v -0.045853 -0.030990 -0.107967
v -0.045853 -0.071696 -0.107967
v -0.045853 -0.071696 -0.050760
v -0.045853 -0.030990 -0.050760
v -0.048305 -0.019726 -0.038203
v -0.048305 -0.082960 -0.038203
v 0.000000 -0.100325 -0.038203
v 0.000000 -0.002599 -0.038203
v 0.000000 -0.021145 -0.038203
v 0.000000 -0.081720 -0.038203
v -0.023276 -0.029398 -0.038203
v -0.023276 -0.073352 -0.038203
v 0.000000 -0.021145 -0.041526
v 0.000000 -0.081720 -0.041526
v -0.023276 -0.029398 -0.041526
v -0.023276 -0.073352 -0.041526
v 0.000000 -0.002599 -0.120525
v -0.048305 -0.019726 -0.120525
v -0.048305 -0.082960 -0.120525
v 0.000000 -0.100325 -0.120525
v 0.000000 -0.012383 -0.115558
v 0.000000 -0.090510 -0.115558
v -0.035101 -0.024828 -0.115558
v -0.035101 -0.077891 -0.115558
v 0.048305 -0.071696 -0.050760
v 0.048305 -0.030990 -0.050760
v 0.048305 -0.071696 -0.107967
v 0.048305 -0.030990 -0.107967
v 0.035837 -0.015305 -0.110224
v 0.035877 -0.087428 -0.110224
v 0.035877 -0.087428 -0.048503
v 0.035837 -0.015305 -0.048503
v 0.035101 -0.024828 -0.120525
v 0.023276 -0.073352 -0.038203
v 0.035101 -0.077891 -0.120525
v 0.023276 -0.029398 -0.038203
v 0.034680 -0.017428 -0.110224
v 0.034707 -0.085312 -0.048503
v 0.034707 -0.085312 -0.110224
v 0.034680 -0.017428 -0.048503
v 0.045853 -0.030990 -0.107967
v 0.045853 -0.071696 -0.107967
v 0.045853 -0.071696 -0.050760
v 0.045853 -0.030990 -0.050760
v 0.048305 -0.019726 -0.038203
v 0.048305 -0.082960 -0.038203
v 0.023276 -0.029398 -0.038203
v 0.023276 -0.073352 -0.038203
v 0.023276 -0.029398 -0.041526
v 0.023276 -0.073352 -0.041526
v 0.048305 -0.019726 -0.120525
v 0.048305 -0.082960 -0.120525
v 0.035101 -0.024828 -0.115558
v 0.035101 -0.077891 -0.115558
vt 0.696863 0.951384
vt 0.696863 0.951384
vt 0.696863 0.951384
vt 0.696863 0.951384
vt 0.696863 0.951384
vt 0.696863 0.951384
vt 0.696863 0.951384
vt 0.696863 0.951384
vt 0.696863 0.951384
vt 0.696863 0.951384
vt 0.696863 0.951384
vt 0.696863 0.951384
vt 0.696863 0.951384
vt 0.696863 0.951384
vt 0.696863 0.951384
vt 0.696863 0.951384
vt 0.696863 0.951384
vt 0.696863 0.951384
vt 0.696863 0.951384
vt 0.696863 0.951384
vt 0.696863 0.951384
vt 0.696863 0.951384
vt 0.696863 0.951384
vt 0.696863 0.951384
vt 0.696863 0.951384
vt 0.696863 0.951384
vt 0.696863 0.951384
vt 0.696863 0.951384
vt 0.696863 0.951384
vt 0.696863 0.951384
vt 0.696863 0.951384
vt 0.696863 0.951384
vt 0.696863 0.951384
vt 0.696863 0.951384
vt 0.859274 0.941541
vt 0.859274 0.941541
vt 0.859274 0.941541
vt 0.859274 0.941541
vt 0.859274 0.941541
vt 0.859274 0.941541
vt 0.859274 0.941541
vt 0.859274 0.941541
vt 0.696863 0.951384
vt 0.696863 0.951384
vt 0.696863 0.951384
vt 0.696863 0.951384
vt 0.859274 0.941541
vt 0.859274 0.941541
vt 0.859274 0.941541
vt 0.859274 0.941541
vt 0.696863 0.951384
vt 0.696863 0.951384
vt 0.696863 0.951384
vt 0.696863 0.951384
vt 0.696863 0.951384
vt 0.696863 0.951384
vt 0.696863 0.951384
vt 0.696863 0.951384
vt 0.859274 0.941541
vt 0.859274 0.941541
vt 0.859274 0.941541
vt 0.859274 0.941541
vt 0.696863 0.951384
vt 0.696863 0.951384
vt 0.696863 0.951384
vt 0.696863 0.951384
vt 0.859274 0.941541
vt 0.859274 0.941541
vt 0.859274 0.941541
vt 0.859274 0.941541
vt 0.696863 0.951384
vt 0.696863 0.951384
vt 0.696863 0.951384
vt 0.696863 0.951384
vt 0.696863 0.951384
vt 0.696863 0.951384
vt 0.696863 0.951384
vt 0.696863 0.951384
vt 0.696863 0.951384
vt 0.696863 0.951384
vt 0.696863 0.951384
vt 0.696863 0.951384
vt 0.696863 0.951384
vt 0.696863 0.951384
vt 0.696863 0.951384
vt 0.696863 0.951384
vt 0.696863 0.951384
vt 0.696863 0.951384
vt 0.696863 0.951384
vt 0.696863 0.951384
vt 0.696863 0.951384
vt 0.696863 0.951384
vt 0.696863 0.951384
vt 0.696863 0.951384
vt 0.859274 0.941541
vt 0.859274 0.941541
vt 0.859274 0.941541
vt 0.859274 0.941541
vt 0.696863 0.951384
vt 0.696863 0.951384
vt 0.859274 0.941541
vt 0.859274 0.941541
vt 0.859274 0.941541
vt 0.859274 0.941541
vt 0.696863 0.951384
vt 0.696863 0.951384
vt 0.696863 0.951384
vt 0.859274 0.941541
vt 0.859274 0.941541
vt 0.696863 0.951384
vt 0.696863 0.951384
vt 0.859274 0.941541
vt 0.859274 0.941541
vt 0.696863 0.951384
vn 0.3383 0.9410 0.0000
vn 0.0000 0.0000 -1.0000
vn 0.0000 0.0000 1.0000
vn -1.0000 0.0000 0.0000
vn -0.3342 0.9425 -0.0000
vn -0.3383 -0.9410 0.0000
vn -0.3483 -0.9374 0.0000
vn -0.3440 0.9390 0.0000
vn 0.8753 -0.4836 0.0000
vn 0.8781 0.4785 0.0000
vn 0.0000 1.0000 0.0000
vn 0.0000 -1.0000 0.0000
vn 0.3342 -0.9425 0.0000
vn 1.0000 0.0000 0.0000
vn -0.3383 0.9410 0.0000
vn 0.3342 0.9425 -0.0000
vn 0.3383 -0.9410 0.0000
vn 0.3483 -0.9374 0.0000
vn 0.3440 0.9390 0.0000
vn -0.8753 -0.4836 0.0000
vn -0.8781 0.4785 0.0000
vn -0.3342 -0.9425 0.0000
usemtl Material.001
s off
f 16/1/1 52/2/1 50/3/1 19/4/1
f 2/5/2 32/6/2 31/7/2 1/8/2
f 8/9/2 22/10/2 28/11/2 12/12/2
f 9/13/3 25/14/3 21/15/3 6/16/3
f 15/17/3 40/18/3 39/19/3 17/20/3
f 4/21/4 46/22/4 47/23/4 3/24/4
f 3/24/4 47/23/4 34/25/4 1/8/4
f 2/5/4 33/26/4 46/22/4 4/21/4
f 1/8/4 34/25/4 33/26/4 2/5/4
f 6/16/5 45/27/5 46/22/5 9/13/5
f 11/28/6 34/25/6 47/23/6 10/29/6
f 9/13/5 46/22/5 33/26/5 12/12/5
f 7/30/6 35/31/6 34/25/6 11/28/6
f 10/29/6 47/23/6 48/32/6 5/33/6
f 12/12/5 33/26/5 36/34/5 8/9/5
f 23/35/7 24/36/7 26/37/7 27/38/7
f 25/39/8 28/40/8 22/41/8 21/42/8
f 11/28/2 26/43/2 24/44/2 7/30/2
f 10/29/9 27/45/9 26/43/9 11/28/9
f 5/33/3 23/46/3 27/45/3 10/29/3
f 12/12/10 28/11/10 25/14/10 9/13/10
f 30/47/4 31/48/4 32/49/4 29/50/4
f 1/8/11 31/7/11 30/51/11 3/24/11
f 4/21/12 29/52/12 32/6/12 2/5/12
f 3/24/3 30/51/3 29/52/3 4/21/3
f 17/20/3 33/26/3 34/25/3 15/17/3
f 15/17/3 34/25/3 35/31/3 18/53/3
f 20/54/3 36/34/3 33/26/3 17/20/3
f 38/55/1 42/56/1 44/57/1 40/18/1
f 18/53/3 38/55/3 40/18/3 15/17/3
f 17/20/3 39/19/3 37/58/3 20/54/3
f 44/59/3 42/60/3 41/61/3 43/62/3
f 39/19/13 43/63/13 41/64/13 37/58/13
f 40/18/14 44/57/14 43/63/14 39/19/14
f 14/65/2 46/22/2 45/27/2 13/66/2
f 16/1/2 47/23/2 46/22/2 14/65/2
f 19/4/2 48/32/2 47/23/2 16/1/2
f 50/67/2 52/68/2 51/69/2 49/70/2
f 13/66/13 49/71/13 51/72/13 14/65/13
f 14/65/14 51/72/14 52/2/14 16/1/14
f 63/73/15 19/4/15 50/3/15 82/74/15
f 54/75/2 53/76/2 71/77/2 72/78/2
f 8/9/2 60/79/2 68/80/2 22/10/2
f 57/81/3 6/16/3 21/15/3 65/82/3
f 62/83/3 64/84/3 75/85/3 76/86/3
f 56/87/14 55/88/14 80/89/14 79/90/14
f 55/88/14 53/76/14 74/91/14 80/89/14
f 54/75/14 56/87/14 79/90/14 73/92/14
f 53/76/14 54/75/14 73/92/14 74/91/14
f 6/16/16 57/81/16 79/90/16 45/27/16
f 59/93/17 58/94/17 80/89/17 74/91/17
f 57/81/16 60/79/16 73/92/16 79/90/16
f 7/30/17 59/93/17 74/91/17 35/31/17
f 58/94/17 5/33/17 48/32/17 80/89/17
f 60/79/16 8/9/16 36/34/16 73/92/16
f 23/35/18 67/95/18 66/96/18 24/36/18
f 65/97/19 21/42/19 22/41/19 68/98/19
f 59/93/2 7/30/2 24/44/2 66/99/2
f 58/94/20 59/93/20 66/99/20 67/100/20
f 5/33/3 58/94/3 67/100/3 23/46/3
f 60/79/21 57/81/21 65/82/21 68/80/21
f 70/101/14 69/102/14 72/103/14 71/104/14
f 53/76/11 55/88/11 70/105/11 71/77/11
f 56/87/12 54/75/12 72/78/12 69/106/12
f 55/88/3 56/87/3 69/106/3 70/105/3
f 64/84/3 62/83/3 74/91/3 73/92/3
f 62/83/3 18/53/3 35/31/3 74/91/3
f 20/54/3 64/84/3 73/92/3 36/34/3
f 38/55/15 76/86/15 78/107/15 42/56/15
f 18/53/3 62/83/3 76/86/3 38/55/3
f 64/84/3 20/54/3 37/58/3 75/85/3
f 78/108/3 77/109/3 41/61/3 42/60/3
f 75/85/22 37/58/22 41/64/22 77/110/22
f 76/86/4 75/85/4 77/110/4 78/107/4
f 61/111/2 13/66/2 45/27/2 79/90/2
f 63/73/2 61/111/2 79/90/2 80/89/2
f 19/4/2 63/73/2 80/89/2 48/32/2
f 50/67/2 49/70/2 81/112/2 82/113/2
f 13/66/22 61/111/22 81/114/22 49/71/22
f 61/111/4 63/73/4 82/74/4 81/114/4
